<svg xmlns="http://www.w3.org/2000/svg" viewBox="0 0 800 1000" role="img" aria-label="Open fire kitchen scene">
  <defs>
    <linearGradient id="bg" x1="0" y1="0" x2="1" y2="1">
      <stop offset="0%" stop-color="#120d0d"/>
      <stop offset="60%" stop-color="#3a171d"/>
      <stop offset="100%" stop-color="#0d0d0d"/>
    </linearGradient>
    <radialGradient id="fire" cx="50%" cy="50%" r="45%">
      <stop offset="0%" stop-color="#f4efe7" stop-opacity="0.18"/>
      <stop offset="35%" stop-color="#d8c3a5" stop-opacity="0.2"/>
      <stop offset="65%" stop-color="#b23a2e" stop-opacity="0.5"/>
      <stop offset="100%" stop-color="#0d0d0d" stop-opacity="0"/>
    </radialGradient>
  </defs>
  <rect width="800" height="1000" fill="url(#bg)"/>
  <rect width="800" height="1000" fill="url(#fire)"/>
  <rect x="120" y="200" width="560" height="92" rx="24" fill="#151010" opacity="0.86"/>
  <rect x="150" y="328" width="500" height="322" rx="38" fill="#0f0f0f" opacity="0.9"/>
  <path d="M400 680 C330 580, 300 500, 338 390 C360 430, 395 455, 415 510 C435 455, 470 430, 492 390 C530 500, 500 580, 400 680 Z" fill="#b23a2e" opacity="0.86"/>
  <path d="M400 650 C360 585, 355 515, 385 455 C400 485, 412 505, 420 540 C432 505, 444 485, 458 455 C488 515, 482 585, 400 650 Z" fill="#f4efe7" opacity="0.16"/>
  <rect x="220" y="720" width="360" height="48" rx="18" fill="#d8c3a5" opacity="0.14"/>
  <rect x="250" y="790" width="300" height="100" rx="24" fill="#5e5a55" opacity="0.52"/>
  <rect x="280" y="810" width="240" height="56" rx="18" fill="#6e1f2a" opacity="0.55"/>
</svg>