<svg xmlns="http://www.w3.org/2000/svg" viewBox="0 0 1000 760" role="img" aria-label="Stylized map placeholder for Downtown District">
  <defs>
    <linearGradient id="bg" x1="0" y1="0" x2="1" y2="1">
      <stop offset="0%" stop-color="#0d0d0d"/>
      <stop offset="50%" stop-color="#1d1315"/>
      <stop offset="100%" stop-color="#5e5a55"/>
    </linearGradient>
  </defs>
  <rect width="1000" height="760" fill="url(#bg)"/>
  <path d="M110 140 H890" stroke="#f4efe7" stroke-opacity="0.08" stroke-width="6"/>
  <path d="M110 290 H890" stroke="#f4efe7" stroke-opacity="0.08" stroke-width="6"/>
  <path d="M110 440 H890" stroke="#f4efe7" stroke-opacity="0.08" stroke-width="6"/>
  <path d="M110 590 H890" stroke="#f4efe7" stroke-opacity="0.08" stroke-width="6"/>
  <path d="M220 80 V680" stroke="#f4efe7" stroke-opacity="0.08" stroke-width="6"/>
  <path d="M420 80 V680" stroke="#f4efe7" stroke-opacity="0.08" stroke-width="6"/>
  <path d="M620 80 V680" stroke="#f4efe7" stroke-opacity="0.08" stroke-width="6"/>
  <path d="M820 80 V680" stroke="#f4efe7" stroke-opacity="0.08" stroke-width="6"/>
  <circle cx="500" cy="360" r="84" fill="#6e1f2a" opacity="0.72"/>
  <circle cx="500" cy="360" r="140" fill="#b23a2e" opacity="0.18"/>
  <path d="M500 260 C540 310, 560 340, 560 382 C560 428, 529 454, 500 454 C471 454, 440 428, 440 382 C440 340, 460 310, 500 260 Z" fill="#f4efe7" opacity="0.2"/>
  <rect x="145" y="100" width="220" height="56" rx="18" fill="#d8c3a5" opacity="0.14"/>
  <rect x="145" y="170" width="160" height="28" rx="14" fill="#d8c3a5" opacity="0.1"/>
</svg>