<svg xmlns="http://www.w3.org/2000/svg" viewBox="0 0 800 1000" role="img" aria-label="Cocktail bar scene">
  <defs>
    <linearGradient id="bg" x1="0" y1="0" x2="0" y2="1">
      <stop offset="0%" stop-color="#120e10"/>
      <stop offset="45%" stop-color="#2b171c"/>
      <stop offset="100%" stop-color="#0d0d0d"/>
    </linearGradient>
    <radialGradient id="glow" cx="55%" cy="32%" r="55%">
      <stop offset="0%" stop-color="#d8c3a5" stop-opacity="0.4"/>
      <stop offset="35%" stop-color="#b23a2e" stop-opacity="0.22"/>
      <stop offset="100%" stop-color="#0d0d0d" stop-opacity="0"/>
    </radialGradient>
  </defs>
  <rect width="800" height="1000" fill="url(#bg)"/>
  <rect width="800" height="1000" fill="url(#glow)"/>
  <rect x="80" y="180" width="640" height="220" rx="40" fill="#151010" opacity="0.88"/>
  <path d="M170 720 C260 620, 320 555, 400 420 C480 555, 540 620, 630 720 Z" fill="#6e1f2a" opacity="0.65"/>
  <path d="M220 690 C290 600, 340 545, 400 440 C460 545, 510 600, 580 690 Z" fill="#d8c3a5" opacity="0.18"/>
  <rect x="330" y="418" width="140" height="340" rx="42" fill="#0d0d0d" opacity="0.72"/>
  <rect x="364" y="452" width="72" height="250" rx="28" fill="#b23a2e" opacity="0.65"/>
  <rect x="150" y="770" width="500" height="80" rx="28" fill="#5e5a55" opacity="0.5"/>
  <circle cx="540" cy="280" r="54" fill="#f4efe7" opacity="0.12"/>
</svg>