<svg xmlns="http://www.w3.org/2000/svg" viewBox="0 0 1200 1400" role="img" aria-label="Casa Brava lounge scene">
  <defs>
    <linearGradient id="bg" x1="0" y1="0" x2="1" y2="1">
      <stop offset="0%" stop-color="#1a0f12"/>
      <stop offset="45%" stop-color="#0d0d0d"/>
      <stop offset="100%" stop-color="#3a171d"/>
    </linearGradient>
    <radialGradient id="ember" cx="50%" cy="28%" r="55%">
      <stop offset="0%" stop-color="#b23a2e" stop-opacity="0.8"/>
      <stop offset="45%" stop-color="#6e1f2a" stop-opacity="0.35"/>
      <stop offset="100%" stop-color="#0d0d0d" stop-opacity="0"/>
    </radialGradient>
    <filter id="grain">
      <feTurbulence type="fractalNoise" baseFrequency="0.8" numOctaves="2" stitchTiles="stitch"/>
      <feColorMatrix type="saturate" values="0"/>
      <feComponentTransfer>
        <feFuncA type="table" tableValues="0 0.22"/>
      </feComponentTransfer>
    </filter>
  </defs>
  <rect width="1200" height="1400" fill="url(#bg)"/>
  <rect width="1200" height="1400" fill="url(#ember)"/>
  <ellipse cx="610" cy="370" rx="320" ry="180" fill="#d8c3a5" opacity="0.14"/>
  <rect x="140" y="980" width="920" height="220" rx="42" fill="#2f1a1d" opacity="0.88"/>
  <rect x="210" y="960" width="780" height="28" rx="14" fill="#d8c3a5" opacity="0.3"/>
  <rect x="260" y="780" width="680" height="320" rx="36" fill="#151010" opacity="0.92"/>
  <rect x="300" y="820" width="220" height="180" rx="28" fill="#5e5a55" opacity="0.72"/>
  <rect x="540" y="812" width="220" height="196" rx="28" fill="#6e1f2a" opacity="0.82"/>
  <rect x="780" y="828" width="110" height="170" rx="26" fill="#d8c3a5" opacity="0.3"/>
  <circle cx="360" cy="520" r="110" fill="#f4efe7" opacity="0.08"/>
  <circle cx="600" cy="470" r="165" fill="#f4efe7" opacity="0.05"/>
  <circle cx="820" cy="540" r="120" fill="#f4efe7" opacity="0.08"/>
  <path d="M380 620 C490 540, 630 540, 740 620" fill="none" stroke="#f4efe7" stroke-opacity="0.18" stroke-width="12" stroke-linecap="round"/>
  <path d="M440 640 C520 590, 600 590, 680 640" fill="none" stroke="#b23a2e" stroke-opacity="0.55" stroke-width="16" stroke-linecap="round"/>
  <rect width="1200" height="1400" filter="url(#grain)" opacity="0.9"/>
</svg>